<svg xmlns="http://www.w3.org/2000/svg" viewBox="0 0 405.05 154.72"><defs><style>.cls-1{fill:#fff;}</style></defs><title>hebergement</title><g id="Calque_2" data-name="Calque 2"><g id="Body_2" data-name="Body 2"><path class="cls-1" d="M2.81,4.53H17.49V56h31.8V68H2.81Z"/><path class="cls-1" d="M63.87,2.4a8.44,8.44,0,0,1,2.45,6.3,14.49,14.49,0,0,1-.46,3.62A45.94,45.94,0,0,1,64,17.76l-5.25,13h-9l3.89-14.31a7.78,7.78,0,0,1-3.53-3,8.72,8.72,0,0,1-1.27-4.8,8.35,8.35,0,0,1,2.49-6.3A8.71,8.71,0,0,1,57.62,0,8.54,8.54,0,0,1,63.87,2.4Z"/><path class="cls-1" d="M120.18,23.92q5.56,5.43,5.57,16.12V68H111.61V42.22q0-5.8-2.53-8.65t-7.34-2.86A11.27,11.27,0,0,0,93.22,34q-3.16,3.3-3.17,9.83V68H75.92V.73H90.05V24.28a18.72,18.72,0,0,1,6.8-4.3,24.44,24.44,0,0,1,8.69-1.5Q114.6,18.48,120.18,23.92Z"/><path class="cls-1" d="M186.54,47.56H149.67a11.45,11.45,0,0,0,4.71,7.16,15.59,15.59,0,0,0,9.24,2.63,18.88,18.88,0,0,0,6.75-1.13,16.45,16.45,0,0,0,5.48-3.58l7.52,8.15q-6.88,7.89-20.12,7.88a31.87,31.87,0,0,1-14.58-3.21,23.63,23.63,0,0,1-9.79-8.93,24.61,24.61,0,0,1-3.44-13,24.85,24.85,0,0,1,3.4-12.91,23.68,23.68,0,0,1,9.33-9,28.88,28.88,0,0,1,26.23-.14,22.5,22.5,0,0,1,9.1,8.84,26.24,26.24,0,0,1,3.31,13.36C186.81,43.94,186.72,45.21,186.54,47.56ZM153.47,31.89a11.62,11.62,0,0,0-4,7.43h24a11.67,11.67,0,0,0-4-7.38,11.91,11.91,0,0,0-8-2.77A12.17,12.17,0,0,0,153.47,31.89Z"/><path class="cls-1" d="M237.41,21.61a22.39,22.39,0,0,1,8.74,8.79,26.53,26.53,0,0,1,3.17,13.18,26.56,26.56,0,0,1-3.17,13.18,22.52,22.52,0,0,1-8.74,8.79A24.9,24.9,0,0,1,225,68.67q-10,0-15.31-6.34V68h-13.5V.73h14.13V24.37q5.35-5.88,14.68-5.89A24.8,24.8,0,0,1,237.41,21.61Zm-5.89,31.8Q235,49.74,235,43.58t-3.49-9.83a12.69,12.69,0,0,0-17.85,0q-3.49,3.66-3.49,9.83t3.49,9.83a12.69,12.69,0,0,0,17.85,0Z"/><path class="cls-1" d="M306.21,47.56H269.34a11.53,11.53,0,0,0,4.71,7.16,15.63,15.63,0,0,0,9.24,2.63A18.8,18.8,0,0,0,290,56.22a16.45,16.45,0,0,0,5.48-3.58L303,60.79q-6.89,7.89-20.11,7.88a31.88,31.88,0,0,1-14.59-3.21,23.66,23.66,0,0,1-9.78-8.93,24.51,24.51,0,0,1-3.44-13,24.85,24.85,0,0,1,3.4-12.91,23.68,23.68,0,0,1,9.33-9,28.86,28.86,0,0,1,26.22-.14,22.53,22.53,0,0,1,9.11,8.84,26.34,26.34,0,0,1,3.31,13.36C306.49,43.94,306.4,45.21,306.21,47.56ZM273.15,31.89a11.53,11.53,0,0,0-4,7.43h24a11.68,11.68,0,0,0-4-7.38,11.87,11.87,0,0,0-8-2.77A12.17,12.17,0,0,0,273.15,31.89Z"/><path class="cls-1" d="M336.25,20.29a25.48,25.48,0,0,1,9.92-1.81V31.53c-1.57-.12-2.63-.18-3.17-.18q-6.08,0-9.52,3.39T330,44.94V68H315.91V19.21h13.5v6.43A15.7,15.7,0,0,1,336.25,20.29Z"/><path class="cls-1" d="M0,105.25H25.64v11.33H0Z"/><path class="cls-1" d="M88,87.68v40.58q0,13.41-7,19.94t-20.38,6.52A51.33,51.33,0,0,1,47.2,153a29.27,29.27,0,0,1-10.51-5l5.62-10.14a23.16,23.16,0,0,0,7.79,4,30.88,30.88,0,0,0,9.42,1.49q7.33,0,10.83-3.3t3.48-10V128q-5.52,6.08-15.4,6.07a25.86,25.86,0,0,1-12.27-2.94,22.46,22.46,0,0,1-8.84-8.29,24.91,24.91,0,0,1,0-24.64,22.39,22.39,0,0,1,8.84-8.29,25.75,25.75,0,0,1,12.27-3q10.6,0,16.13,7V87.68ZM70.44,119.16a12.24,12.24,0,0,0,0-17.3,13,13,0,0,0-9.2-3.31A13.17,13.17,0,0,0,52,101.86a12.14,12.14,0,0,0,0,17.3,13.22,13.22,0,0,0,9.24,3.31A13,13,0,0,0,70.44,119.16Z"/><path class="cls-1" d="M148.58,116H111.7a11.51,11.51,0,0,0,4.72,7.16,15.59,15.59,0,0,0,9.24,2.63,18.88,18.88,0,0,0,6.75-1.13,16.56,16.56,0,0,0,5.48-3.58l7.52,8.15q-6.89,7.89-20.12,7.88a31.84,31.84,0,0,1-14.58-3.21,23.63,23.63,0,0,1-9.79-8.93,26.15,26.15,0,0,1,0-25.86,23.68,23.68,0,0,1,9.33-9A28.88,28.88,0,0,1,136.44,90a22.5,22.5,0,0,1,9.1,8.84,26.27,26.27,0,0,1,3.31,13.36C148.85,112.41,148.76,113.68,148.58,116Zm-33.07-15.67a11.53,11.53,0,0,0-4,7.43h24a11.64,11.64,0,0,0-4-7.38,11.87,11.87,0,0,0-8-2.77A12.17,12.17,0,0,0,115.51,100.36Z"/><path class="cls-1" d="M235.23,92.34q5.39,5.4,5.39,16.17v27.91H226.49V110.69q0-5.81-2.4-8.65a8.42,8.42,0,0,0-6.84-2.86,10.09,10.09,0,0,0-7.88,3.22q-2.91,3.21-2.9,9.56v24.46H192.33V110.69q0-11.5-9.24-11.51a10,10,0,0,0-7.79,3.22q-2.9,3.21-2.9,9.56v24.46H158.27V87.68h13.5v5.61a17.88,17.88,0,0,1,6.66-4.71A22.51,22.51,0,0,1,187.08,87a21,21,0,0,1,9.33,2,16.64,16.64,0,0,1,6.71,5.93A20,20,0,0,1,210.68,89a23.86,23.86,0,0,1,10-2.09Q229.84,87,235.23,92.34Z"/><path class="cls-1" d="M301.32,116H264.45a11.45,11.45,0,0,0,4.71,7.16,15.63,15.63,0,0,0,9.24,2.63,18.8,18.8,0,0,0,6.75-1.13,16.45,16.45,0,0,0,5.48-3.58l7.52,8.15q-6.88,7.89-20.11,7.88a31.88,31.88,0,0,1-14.59-3.21,23.54,23.54,0,0,1-9.78-8.93,24.51,24.51,0,0,1-3.44-13,24.94,24.94,0,0,1,3.39-12.91,23.81,23.81,0,0,1,9.33-9A27.47,27.47,0,0,1,276.23,87,27.19,27.19,0,0,1,289.18,90a22.53,22.53,0,0,1,9.11,8.84,26.37,26.37,0,0,1,3.3,13.36C301.59,112.41,301.5,113.68,301.32,116Zm-33.07-15.67a11.57,11.57,0,0,0-4,7.43h24a11.73,11.73,0,0,0-4-7.38,11.87,11.87,0,0,0-8-2.77A12.21,12.21,0,0,0,268.25,100.36Z"/><path class="cls-1" d="M355.27,92.39q5.58,5.43,5.57,16.12v27.91H346.71V110.69q0-5.81-2.54-8.65c-1.69-1.91-4.13-2.86-7.34-2.86a11.25,11.25,0,0,0-8.51,3.31q-3.18,3.3-3.17,9.83v24.1H311V87.68h13.49v5.7a18.87,18.87,0,0,1,7-4.75A24.27,24.27,0,0,1,340.64,87Q349.7,87,355.27,92.39Z"/><path class="cls-1" d="M405.05,134.06a14.32,14.32,0,0,1-5.11,2.31,25.66,25.66,0,0,1-6.39.77q-8.7,0-13.45-4.44t-4.76-13v-20h-7.52V88.76h7.52V76.9h14.13V88.76h12.14V99.64H389.47v19.84a6.62,6.62,0,0,0,1.59,4.75,5.85,5.85,0,0,0,4.48,1.68,9.07,9.07,0,0,0,5.71-1.81Z"/></g></g></svg>