<svg xmlns="http://www.w3.org/2000/svg" xmlns:xlink="http://www.w3.org/1999/xlink" viewBox="0 0 493.45 541.48"><defs><linearGradient id="Dégradé_sans_nom_2" x1="79.96" y1="224.37" x2="79.96" y2="224.37" gradientUnits="userSpaceOnUse"><stop offset="0" stop-color="#f57095"/><stop offset="0.06" stop-color="#f5778f"/><stop offset="0.49" stop-color="#f7ae65"/><stop offset="0.82" stop-color="#f9cf4a"/><stop offset="1" stop-color="#f9dc40"/></linearGradient><linearGradient id="Dégradé_sans_nom_38" x1="99.25" y1="225.41" x2="99.05" y2="209.91" gradientUnits="userSpaceOnUse"><stop offset="0" stop-color="#f89b56"/><stop offset="0.31" stop-color="#f6a659"/><stop offset="0.85" stop-color="#f2c562"/><stop offset="1" stop-color="#f1ce65"/></linearGradient><linearGradient id="Dégradé_sans_nom_2-2" x1="78.97" y1="244.59" x2="103.47" y2="228.1" xlink:href="#Dégradé_sans_nom_2"/></defs><title>map</title><g id="Calque_2" data-name="Calque 2"><g id="Body_6_Contact_" data-name="Body 6 (Contact)"><g id="Carte"><path d="M226.84,54.42v0h0Z" fill="none" stroke="#fff" stroke-linecap="round" stroke-linejoin="round" stroke-width="1.82"/><path d="M492.27,503.1c-5.4-4.67-10.79-9-15.3-14.39-.93-3.94-2.94-7.85-1.84-12.22,2.05-.57,1.41-2.27,1.43-3.6.06-3.29-.53-6.7.13-9.85,1-4.75-.44-8.42-3.41-11.84l-5.22-12.54c-5.22-.41-9.7,4.35-11.46,11.66l-3.23,2.86-4,1.1c-2.28-1.62-4.53-3.32-7.54-3.54-1.42-6.36-3.3-12.18-8.38-16.65-4.78-4.22-9.45-8.64-13.1-14a4.23,4.23,0,0,0-5.71-1.31c-2.67,1.54-5,.85-7.59-.24-.91-2.41-2.53-4.64-4.83-5.45-2-.69-2-2.19-2.9-3.38-2.11-4-5.23-7.35-6.29-11.55-3.71.19-2.51,6-6.88,4.79a3.22,3.22,0,0,1-1-2.86,2.37,2.37,0,0,0-2.08-2.89c-5.59.11-5.64-3.69-5.5-7.26-1.24-1.75-3.51-2.44-2.76-5.35.35-.81,2.3-.63,2.62-2.13.62-1.44-.28-3.25,1.44-4.82h7.48a17.71,17.71,0,0,1,5.53-4c.7-7.74-.55-15.4.63-22.64,2.26-.89,3.06,1.28,5.14.88,2.3-1.37,4.57-3.38,5.39-6.13,2.09-2.2,5.4-1,6.79-3.45-.35-4.65-4.78-2.95-7.44-4.87,1.05-2.25-.16-4.16-1.22-5.66-.08-1.73,1.71-2.11,1.5-3.35-1.2-3-4.69-.81-6.36-3.17-.07-4.72,4.14-3.6,6.74-4.65,6.41-5.48,13.76-5.64,16.79-.27-.27,2.11-1.28,4.3-.36,6.2,1.8,2.56,4.16.85,6.33,1.41,4.43,4.15,2.5,10.45,5,15.28,1.67,3.09,4.65,3.28,7.81,3.35,5.58.1,8.29,3.41,7.24,8.76-.37,1.88-.27,3.4,1.44,4.6h9.39c1.49-1.38,3-2.45,4.08-4.66-2-3.57-2-7.79-1.7-12a24.11,24.11,0,0,0-2.18-12c-2-4.37-.71-7.87,1.71-11.46,1.83-2.69,4-5.25,5-8.48a8.94,8.94,0,0,1-2.8-8c.68-6.93.25-13.56-5.38-18.94-1.89-1.8-4.61-3.31-5-6.47-.5-4.42-3-6.16-7.39-5.66-2.63.3-5.44-.38-8,.24a14,14,0,0,1-11.36-1.92l-6,1.66c-2.89-2.41-6-1.68-9.3,0-.4-2.58-.79-4.76-1.08-7s-.49-4.44-.71-6.5c.74-1.33,2.56-1.36,2.78-2.94-3.74-9-4.1-11.82-1.24-17.22,3.39-6.4,6.78-12.84,12.14-17.56,2.08-8-2.21-15.31-1.14-22.75-1.17-1.38-2.1-2.49-3.21-3.79,1.08-3.74-2.37-6.11-3.09-9.32a39.13,39.13,0,0,1,1.71-23,4,4,0,0,0,.18-3.39l-4.48-2.89-3.52,1.66c-3.83,4.53-3,9.42-1.21,13.95a8.68,8.68,0,0,1-3.77,3.44c-3,1.74-6.59,3.25-6.56,7.6,0,4.91-3.48,8.82-3.73,13.65a2.42,2.42,0,0,1-1.53,1.72c-4.29.64-6.2,4-8.13,7.1-2.53.2-4.74.58-7-.31-1-5,.12-9.91-.67-14.81l-4.33-2.35c-2,2.09-4.37,1.69-6.69,1-1.76,1.39-3.67,3.24-5.75,2.09-3.39-1.87-7-.91-10.46-1.6l-4.07-3.56c-4.14-.05-8.09,2.77-12.07-.16.47-1.3,1.51-2.18,1.15-4.2-1.86-2-2.19-5.39-3.64-8.17a4.68,4.68,0,0,1,2.34-2.6c1.94-.6,3.81.11,5.59-1a19.59,19.59,0,0,1,13.18-3.25c2,.25,4.06.1,4.93-2.85-4.8-3.27-7.42-8.46-10.51-13.3-2-3.13-3.73-7-2.63-10.08,2.32-6.5.47-12.56-.11-18.09a21,21,0,0,1,7.31-12.9A18.93,18.93,0,0,1,360,110.47c2.8-4.51,4.17-10.09,10.79-9.2.57-1.61.77-2.84-.22-4.23-3.36-.4-6.71-1.13-8.67-4.53a7.3,7.3,0,0,1,.23-4.06l2.74-2.15c.26-4.92-2.93-8.28-5.38-12.14,3.11-4.17,7.76-6.67,10.81-11,1.72,2.13.42,4.21,1.73,6.36.72,1.41,3.74,0,4.57,2.4-.9,3.67-4.68,1.56-6.54,3.18.59,3.12.59,3.12,3.92,4,3.08-1.67,5.56-4.77,9.82-4.57,1-4.86-2.38-8-4-11.4-1.94-4-2.75-7.36,0-11.1.6-.83,1.45-1.58,1.25-2.55-9.31-5-14.52-14.1-22.36-21.69.8-5.6,5.34-11.76,2.46-18.78-3.57-.18-4.35,3.53-7.08,4.44l-3,.27c-5.5,3.89-9.74,7.67-12.14,12.48h-8c-3.18-1.84-3.1-6.43-6.9-6.75-1.26-2.89.29-5.91-1.52-8.59-5-.3-9.67-2.19-14.45-4.36-2.49,1.11-5.28.65-7.94,1.23-.57-2.25,1.38-3.6,1.32-5.66-5.45-1.9-11.07-.86-16.58-1.15-2.77-.15-5.05.83-7.5,2.09-5.72,2.93-10.76,7-16.68,9.63-3.12,1.39-7.13,2.24-8.57,6A31.73,31.73,0,0,1,237.66,35c-2.77,1.62-4.39.87-6.15-1.15-.68-.78-.61-2.12-2.15-2.51-2.28.25-3.6,1.36-3,4,1.43.94,3.37.65,4.23,2.44,1.22,6-1.38,11.26-3.78,16.56l4.87,1.3c3.07,3.16,2.66,8.4,5.92,11.71.87.79,2.37.39,2.85,1.21,2.85,7.71,3.43,15.35,3.16,23.49l3.16,2.09c-.92,6.73-4,12.71-3,19.35,2.29,3,6.36,2.45,9.2,4.82.11,1.91.23,4,.34,6,2,2.92,4,5.72,6.31,9v10.48l3.89,1.72c1.75,6.56,5.34,12.52,1.61,20.3-3.23,6.72-7.95,11.71-13.08,16.87-2.22.75-5-.66-7.19,1-3.21,2.47-6.82,2.54-10.57,2.42-2.51-.09-5,0-6.48,0-3.5,1.26-3.11,3.83-3.95,5.51-4.5,3.34-8.69,3.62-13.05-.09-3.83-3.26-8.51-5.51-11.61-9.29,1.1-2.84,3.4-2.46,4.82-2.86,3.22-4.25,5.78-8.37,3.71-13.7-4-.88-8.14.5-11.91-1.92-.08-1-.18-2-.27-3s-.16-2.09-.22-2.93c-4.26-4.32-5.16-4.59-9.06-2.69-.11,1.48-.43,3,.24,4.7,1.51.88,3.45,1.34,4.66,3.27v15.79c-5.34,3.59-12-1.46-17.22,2.42,0,1.67,1.25,2.39.77,3.75-1.24,2.71-2.6,5.58-5.67,7.28-7.5.69-14.86.26-22.06-2.86-3.17-1.38-5.1-3.15-5.54-6.41-.22-1.61-.28-3.12-1.47-4.41-2.08-2.25-2.24-4.93-1.5-7.84h2.34c1.26,1.11-.46,4.7,3.7,3.52-1.43-4.27,4.94-6.77,2.47-11.79a20.67,20.67,0,0,1-10-3.21c-3.19-2-6.2-4.65-9.68-5.86-4.62-1.6-6.06-5.11-7.49-9-.49-1.32.58-3-1-4a11.78,11.78,0,0,1,1.26-5.23c.92-1.77.17-3.69-1-5.11-.64-.79-1.9-2-3.2-.47a11,11,0,0,1-4.51-2.49c-3.07-2.74-6.89-2.78-10.47-3.4a20.43,20.43,0,0,0-5.2,7.48c-3.42-1-6.89.16-9.89-.8-1.21.32-1,1.66-2.09,1.66-2.65-1.41-2.54-5.28-5.77-6.48-3.82-.38-3.82-.38-8,2.9-4.21-.24-7.59,2.22-11.26,3.91-1.18,5.08.6,9.13,3.31,12.59,2.56.86,4.63,0,6.72-.12a20.48,20.48,0,0,0,3,3.14,61.21,61.21,0,0,1,8.62,7.32c3.57,3.68,5.57,8.9,11.51,9.77.15,0,.23.43.36.68-.23,1.35-2.38,2-1.41,3.84,1.59,1.38,4-.36,5.91,1.82-1,3.36,1.19,6.65,1.42,10.28a8.92,8.92,0,0,0,5.56,2.6c4.62-2.26,10.19-2.71,12.72-7.61a9.66,9.66,0,0,1,5.07.09c4.34,6.27,5.79,15.61,4.39,23.67a8.05,8.05,0,0,0,.13,2.73c.65,4.41-.75,7.77-5.11,9.55a12.25,12.25,0,0,0-1.91,1.35v11.55c-4.9,0-7.15,5-10.42,4.94-6.39,3.8-6.78,10.92-11.41,14.77C91.56,242.09,83.31,243.63,81,248c0,.44-.22,1.11,0,1.47,2.83,4.19.2,9.5,2.9,13.77a3.86,3.86,0,0,1-.27,3.44c-1.44,2.09-.91,4.33-1.21,6.53-.83,5.86,3.08,11.29,1.18,17.72A4.49,4.49,0,0,1,78.29,293a11.57,11.57,0,0,1,1.12,4.83V300a10.83,10.83,0,0,1-.38,2.81c.33-.07.66-.14,1-.24,1.49,11,3,21.81,4.46,33,1.47,2.9,4.56,4.51,7.37,6,5.06,11,7,22.53,7.42,34.33-1.89,8.43-1.06,17.26-1.29,25.89-.13,5.31.42,10-4.14,13.12a7.83,7.83,0,0,0,.11,4.47l4.7,2.65c1.72-1.77,3.82-1.57,6.21-1.88,1.78,6.42,4.34,12.52,2.89,19.65a20,20,0,0,0-1.93-.78,63.87,63.87,0,0,1,7.2,13.88c.15.36.28.72.42,1.08q1.58,1.75,3,3.65a10.49,10.49,0,0,0,2-2c2.34.89,4.13,2.13,5.92,2.28,10.85,7.56,11.64,20.1,15.82,31,1.4.41,2.65.69,4-.11.62-2.26,1.45-4.23,4.39-4.23,4.55,0,5.09,3.75,6.36,7.07,3.09-2.39,3.34-5.63,1.82-8-1.83-2.83-1.71-5.72-2.34-8.61,1.8-3.33,5.45-6.14,1.12-12.32-1.92-3.85-8-5.42-14.29-7.54,2.17-1.52,4-.73,5.93-1.45.26-1.68,2.38-1.81,3.41-3.15,1.24-1.76-.79-3.24-.24-5.93,8.55-.84,16.57,1.88,25.07,4.47,2.28-1.88,5.26-1.5,7.91-.69,3.73-.85,6.11-3.22,8.47-5.28a6.78,6.78,0,0,1,4.29.32c2.88,4,.09,6.37-2.34,8.34-.67,5.35,1.84,8.92,6,12.22-7.1,4.32-7.07,9.56-3.14,15.43,5.79,1.13,11.77.56,17.62,2.3,1.09,1.65,1.6,4.06,4,4.77,1.67-.74,2.16-2.87,4.06-3.1,1.1.72,1.45,2.38,3.18,2.3l2.11-2.63c2.29-.39,4.23-.48,4.64,2.65l-2.55,4.74c1.42,1,2.73,1.83,4,2.69.71,1.18,0,2.76,1.22,3.74a3.84,3.84,0,0,0,5-1.81c.85-2-.09-3.91,1.09-5.48a2.82,2.82,0,0,1,3.17.44c-.13,2.88,4.31,4.81,1.86,8.78-2.31,0-5.12.29-5.35,3.25-.34,4.26-1.3,8.81,2.34,12.51l6.13.34,3.68,3.13c3.68-.88,7,.8,9.83,2,3.63-.9,2.76-4.18,4.51-5.86,3.76-3.61,5.24-8.23,6-13.39.89-5.63,1.4-12.17,9.59-12.47a5,5,0,0,0,1.26-.33c3.68,1.37,2.15,4.64,3,7.1l5.07,3.56c4.32.43,8.62,1.56,12.68-.8.62-3.42-3-4.37-3.6-7,.76-3.05.13-6.93,4.82-7.79,4.1,1.1,3.6,5.64,5.79,8.39,3.08-.25,5.4-2.07,7.71-3.25,1.08-1.45,1-3.35,2.68-4.06,2,1.15.57,3.39,1.94,5,1.66,1.13,4.16,1.86,4.73,4.43-.36,2.26-2.35,2.43-3.67,3.43s-2.25,2.62-1.36,4.51c7.65,1.61,10.25,0,11.49-7.23a4.13,4.13,0,0,1,2.45-3.34c1.54-.73,3-1.55,3.85-2,2.34-3.69-.94-7.5,1.79-11,2.33,2.18,4.49,4,7.16,4.79a26.49,26.49,0,0,1,8,4.19c-.06,6.33,2,12.29,3.24,18.4a1.72,1.72,0,0,0-.13.72A12.15,12.15,0,0,1,365.1,518a33.51,33.51,0,0,1,2.32,3.08c.53.07,1.06.13,1.58.22,1.2,2.71,2.64,5,5.37,6.16-.35,3.63,4.39,5.14,3.46,9.08,2.43.59,3.87,2.41,4.9,3.18,12,2.76,21.93-1.63,32.08-5.17,5.22-1.81,8.8-6.82,14.71-7.16,2.37-3.41,2.33-7.93,5-11.07,4.16-4.92,10.26-8.17,12.25-15,.41-1.42,3.74-1.37,4.05-3.38.65-4.19,4-4.73,7-6.09a22.78,22.78,0,0,0,5.78,4.17c.55,2.56.57,5.12,1.88,7.06,1.94.32,2.77-1.37,4.61-1.66,2.66,1.49,6,.07,9.24,1.12,3,3.22,7.11,4.39,11.22,5.31C492.48,506.5,492.89,504.85,492.27,503.1ZM162.65,314.89c-.88-2.5-1.68-4.74-2.71-7.66-3.88,4.36-8.55,6.25-13.41,5.67-8.74-5.63-9.76-14.45-11.41-23-.65-3.39,2.14-4.62,3.79-6.5,2.81-3.21,5.43-6.4,10.73-3.44,3.32,1.86,6.26-1.89,9.49-2.84,3.8,1.63-.49,4.87,1.49,7a60.26,60.26,0,0,1,4.71,6.46c-2.31,4.76-6,9-4.25,15,3.33-.6,5.52-4.58,9.37-2.62a10.37,10.37,0,0,1,4.11,3.13l-.27,3.06,2.12,3.1C173.64,317.73,168,318.79,162.65,314.89Zm16.52-40.36c-1.39,2.22-2.56,4.65-4.76,6.37-3.55.17-5-2.37-6.89-3.87-1.05-5.66,1.08-8.8,6.27-9.41a4.87,4.87,0,0,1,4.9,2C179.71,271.14,180.18,272.9,179.17,274.53Zm3.54-39.2c-5.78,1.92-11.18-.64-17.16-.7-.48-7.67,5.78-8.73,10.08-11.66a20.89,20.89,0,0,1,6.9,4.06C183.25,229.64,182.9,232.25,182.71,235.33Zm30.41,52.34c-7.19,2-10.6-.67-9.87-7.82,3.2,0,6-4.7,9.38-1.75C215.44,280.52,214.17,284.35,213.12,287.67ZM218.8,442c2.21-1.17,4-.07,5.36,2.1a18,18,0,0,1-.09,6.41c-2.87,1.52-5,.49-7.17-1.21C216.33,446.49,215.67,443.59,218.8,442Zm1.65,28.22c-2.44-1.29-2.91-3.37-2.15-5.71.93-2.9,3.29-3.38,8.7-1.95a25.26,25.26,0,0,1,1.82,2.33,19.48,19.48,0,0,1,1.2,2.62C227.38,470.87,223.56,471.82,220.45,470.17Zm-3.62-156.82c-1.1-7.7-.52-9.22,5.83-15.25a14.69,14.69,0,0,1,5.76,0,23,23,0,0,1,3.66,12.7C225.56,319.16,222.65,319.64,216.83,313.35Z" fill="none" stroke="#fff" stroke-linecap="round" stroke-linejoin="round" stroke-width="1.82"/><path d="M272.48,277a1.5,1.5,0,0,1-.11.34,1.5,1.5,0,0,0,.11-.34,1.15,1.15,0,0,0-.11-.59A1.15,1.15,0,0,1,272.48,277Z" fill="none" stroke="#fff" stroke-linecap="round" stroke-linejoin="round" stroke-width="1.82"/><path d="M446.37,457.78h0c-.09-.07-.21-.2-.28-.18S446.28,457.72,446.37,457.78Z" fill="none" stroke="#fff" stroke-linecap="round" stroke-linejoin="round" stroke-width="1.82"/><path d="M462.5,453.08a7.85,7.85,0,0,0,.84,0A7.85,7.85,0,0,1,462.5,453.08Z" fill="none" stroke="#fff" stroke-linecap="round" stroke-linejoin="round" stroke-width="1.82"/><path d="M45.29,271.56c.66-2.62-.13-5.65,2.59-8.46a24.15,24.15,0,0,0,8.45-6.74c4.46.55,5.17-2.87,5.79-6,2.93-1.26,6.21.6,8.62-1.83a10.5,10.5,0,0,0-1.8-9.84c-2.3-6.48-2.12-12.12-4.68-17.06-1.18-.5-2.26-1.08-3.63-.1-.87,1.2-1.22,3.07-2.71,4.05-4.33,2.87-9.67,1.71-14.31,3.46a2.48,2.48,0,0,1-1.85-.6c-3-2.26-6.4-3.44-10-4.56-5.2-1.63-10-1.73-14.54,1.14-.26,1.57-.47,2.87-.69,4.17C11.5,233.63,9,240.77,1.21,242.66,1.29,247.74,0,253,2.49,258,.08,262.5,1.13,267.17,1.2,272c3.29-.07,6.14-.35,9.64,1-6.77,4.76-8.66,10.72-6.62,17.94L8.77,292c3.27-2.07,5.41-5.29,7.89-7.77.71-4.07-.34-8,.89-12.09,4.31.85,8.45-1,12.36,1.15a3.74,3.74,0,0,0,4.15.07c1.68-1.24,3.5-1,5.33-1.12S43.37,272.76,45.29,271.56Z" fill="none" stroke="#fff" stroke-linecap="round" stroke-linejoin="round" stroke-width="1.82"/><path d="M62.78,107.77c-.28.71-.49,1.28-.7,1.81.69.92,2-.39,2.59,1a5.38,5.38,0,0,1,.07,1.3c-.93,6.83,1.74,9.29,8.66,8.09a13.46,13.46,0,0,1,5.13-.13c4.37,1,8.57-.14,13.8-.4-2.28-3,1.18-6.25-1.94-8.74-7.81,3.28-16.17.08-24.4,2,1.07-1.87-.8-3.18-.82-4.68.36-1.55,2.58-1.28,2.41-3.46-3.32-.56-6.91.29-10.46-1.57.32,2.43,2.22,3.12,2.73,4.71Z" fill="none" stroke="#fff" stroke-linecap="round" stroke-linejoin="round" stroke-width="1.82"/><path d="M71.44,170.41c4.15,5.36,7.16,11.39,12.48,16.32,1-2.71,1.61-4.42,2.88-5.67,0-2.92.47-5.77-.74-8.57H80.21c-1.59-2.46-4.86-2.83-6.56-5.38-3.22.44-7.15-3.12-9.32,2,.36,1.77.56,3.55,2.84,3.77C68.59,172.18,69.51,170.7,71.44,170.41Z" fill="none" stroke="#fff" stroke-linecap="round" stroke-linejoin="round" stroke-width="1.82"/><path d="M71.21,103.9h0l0,0h0v0Z" fill="none" stroke="#fff" stroke-linecap="round" stroke-linejoin="round" stroke-width="1.82"/><path d="M71.22,107.86c2,2.93,4,1.75,5.41.7,5.25,1.55,10,.67,14.6.73.74-1.58,1.22-2.78-.34-3.56-1.62,0-1.76,2.62-3.54,1.83-.71-3.44,4-1.84,4.24-4.8-1.27-.13-2,1.83-3.23.68l.23-1.66a10.47,10.47,0,0,0-7.07,2.11c-2.13-4.58-7.29.47-9.66-4.25-.29,1.94-.47,3.1-.64,4.25A2.83,2.83,0,0,1,71.22,107.86Z" fill="none" stroke="#fff" stroke-linecap="round" stroke-linejoin="round" stroke-width="1.82"/><path d="M381.45,142.71c-.31,1.65,1.57,2.14,1.48,3.48.9,4.18-2.45,8-1.3,12.48,7-3.61,7.7-5.82,5-15.18C385,143.09,383.39,141.87,381.45,142.71Z" fill="none" stroke="#fff" stroke-linecap="round" stroke-linejoin="round" stroke-width="1.82"/><path d="M31.62,117.06l2.26.26c.19.58.64.82,1,.36.58-.68.29-1.34-.42-1.82a4.16,4.16,0,0,0-.32-.39c.1-.42.2-.84.31-1.26h0c1.26-1.27.71-2-.75-2.37a2.08,2.08,0,0,0-3,.08C31.1,113.52,29.16,115.58,31.62,117.06Zm2.06-5.17c.23.75.46,1.5.68,2.25h0c-1,0-2.1.5-2.78-.73C31.48,111.79,32.65,111.93,33.68,111.89Z" fill="none" stroke="#fff" stroke-linecap="round" stroke-linejoin="round" stroke-width="1.82"/><path d="M71.19,107.87v0l0,0h0Z" fill="none" stroke="#fff" stroke-linecap="round" stroke-linejoin="round" stroke-width="1.82"/><path d="M71.2,103.89c-.74-.17-.44-1.51-1.42-1.36v6.37l1.41-1C71.19,106.55,71.19,105.22,71.2,103.89Z" fill="none" stroke="#fff" stroke-linecap="round" stroke-linejoin="round" stroke-width="1.82"/><polygon points="82.5 101.77 82.17 101.87 82.46 102.05 82.5 101.77" fill="none" stroke="#fff" stroke-linecap="round" stroke-linejoin="round" stroke-width="1.82"/><path d="M226.84,54.42l0,0-.08.06Z" fill="none" stroke="#fff" stroke-linecap="round" stroke-linejoin="round" stroke-width="1.82"/><path d="M226.74,54.45Z" fill="none" stroke="#fff" stroke-linecap="round" stroke-linejoin="round" stroke-width="1.82"/><path d="M226.54,54.5l.2,0h0Z" fill="none" stroke="#fff" stroke-linecap="round" stroke-linejoin="round" stroke-width="1.82"/><path d="M226.54,54.5Z" fill="none" stroke="#fff" stroke-linecap="round" stroke-linejoin="round" stroke-width="1.82"/><path d="M56.13,282.31a62.25,62.25,0,1,1,88,0l-44,44Z" fill="#fff"/><path d="M100.15,181.73a56.39,56.39,0,0,1,40,16.57h0a56.56,56.56,0,0,1,0,80l-40,40-40-40a56.56,56.56,0,0,1,0-80h0a56.38,56.38,0,0,1,40-16.57m0-11.37a67.94,67.94,0,0,0-48,116l40,40,8,8,8-8,40-40a67.94,67.94,0,0,0-48-116Z" fill="#282525"/><path d="M127.23,204.88s-3.33,14.26-11.11,8.77a8.18,8.18,0,0,1,3-2.68,6.41,6.41,0,0,0-3.57,1.8C112.88,204,127.23,204.88,127.23,204.88Z" fill="#0edc79"/><path d="M112.48,208.83a5.12,5.12,0,0,1-.87-2.28,4,4,0,0,0,.27,2.45c-4.89-.64-1.17-7.3-1.17-7.3S116.51,206.39,112.48,208.83Z" fill="#0edc79"/><line x1="79.96" y1="224.37" x2="79.96" y2="224.37" fill="url(#Dégradé_sans_nom_2)"/><path d="M117.83,219c-4.23,1.68-5,6-11.09,6-7.54,0-9.61-6.65-15-6.65-4.39,0-6.81,4.39-11.18,6A20,20,0,0,1,117.83,219Z" fill="url(#Dégradé_sans_nom_38)"/><path d="M120.12,228.28a19.79,19.79,0,0,1-2.31,9.32c-3.77-1.8-6.18-5.26-10.21-5.26-5.4,0-7.41,6.31-15,6.31-6.5,0-6.94-4.93-12-6.3a20.36,20.36,0,0,1,0-8c4.37-1.65,6.79-6,11.18-6,5.39,0,7.46,6.65,15,6.65,6.08,0,6.86-4.3,11.09-6A19.85,19.85,0,0,1,120.12,228.28Z" fill="url(#Dégradé_sans_nom_2-2)"/><path d="M65.24,255.52l-.18.14v3a.12.12,0,0,1-.12.12h-.26a.12.12,0,0,1-.12-.12v-1.37H63.09v1.37a.12.12,0,0,1-.12.12h-.26a.12.12,0,0,1-.12-.12v-3l-.18-.14v-.1a.12.12,0,0,1,.12-.12H63a.12.12,0,0,1,.12.12v1.36h1.47v-1.36a.12.12,0,0,1,.12-.12h.44a.12.12,0,0,1,.12.12Z"/><path d="M70.73,257.52a1.3,1.3,0,1,1,1.3,1.3A1.29,1.29,0,0,1,70.73,257.52Zm2.1,0a.8.8,0,1,0-.8.82A.81.81,0,0,0,72.83,257.52Z"/><path d="M80.35,258.42v.27c0,.05,0,.09-.11.11a.71.71,0,0,1-.21,0,1,1,0,0,1-1-1.11v-1h-.41a.12.12,0,0,1-.12-.12v-.25a.12.12,0,0,1,.12-.12h.41v-.81a.11.11,0,0,1,.11-.12h.26a.12.12,0,0,1,.12.12v.81h.52a.12.12,0,0,1,.12.12v.25a.12.12,0,0,1-.12.12h-.52v.95c0,.4.2.66.49.66l.15,0A.11.11,0,0,1,80.35,258.42Z"/><path d="M85.72,257.52a1.23,1.23,0,0,1,1.16-1.29,1.15,1.15,0,0,1,1.14,1c0,.06,0,.28,0,.33a.12.12,0,0,1-.11.09h-1.7a.73.73,0,0,0,.68.64,1,1,0,0,0,.66-.28.13.13,0,0,1,.1,0,.11.11,0,0,1,.08,0l.16.21a.19.19,0,0,1,0,.08.1.1,0,0,1,0,.07,1.22,1.22,0,0,1-2.15-.89Zm1.82-.31a.66.66,0,0,0-.67-.5.71.71,0,0,0-.64.5Z"/><path d="M94.28,258.54v.1a.12.12,0,0,1-.12.12h-.45a.11.11,0,0,1-.11-.12v-3l-.19-.14v-.1a.12.12,0,0,1,.12-.12H94a.12.12,0,0,1,.12.12v3Z"/><path d="M99.8,258.6a.17.17,0,0,1-.07-.12v-.37h0q0-.08.09-.09h0l.1,0,.16.26a1.32,1.32,0,0,0,.49.14c.38,0,.59-.13.59-.34s-.32-.28-.6-.38-.82-.3-.82-.76.36-.7.91-.7a1.56,1.56,0,0,1,.74.2.2.2,0,0,1,.06.13v.35a.1.1,0,0,1-.09.11h-.09l-.17-.25h0a1.14,1.14,0,0,0-.51-.11c-.23,0-.35.1-.35.24s.16.22.53.35.89.22.89.8-.43.79-1.08.79A1.43,1.43,0,0,1,99.8,258.6Z"/><path d="M75.13,238.08a3.26,3.26,0,0,0-1.16,0s0-.09,0-.14c-.41-1.79-2.5-2.8-4.78-2.4a8.68,8.68,0,0,0-4.42,2,10.65,10.65,0,0,0-3.44,7,8,8,0,0,0,.91,4.54,6.77,6.77,0,0,0,3.09,3,8.14,8.14,0,0,0,4.32.83,8.73,8.73,0,0,0,4.91-2.12,9.54,9.54,0,0,0,2.81-4c1.05-2.75,1-5.27-.24-7.22A3.33,3.33,0,0,0,75.13,238.08Zm.88,5.46c-.62,3.74-2.25,6.28-4.93,7.53a5.58,5.58,0,0,1-4.08.35,4.52,4.52,0,0,1-2.39-1.95,5.2,5.2,0,0,1-1-2.52,11.24,11.24,0,0,1,.08-3,9.63,9.63,0,0,1,1.93-4.45,6.82,6.82,0,0,1,4.46-2.73,1.88,1.88,0,0,1,1.47.17c.14.09.24.3.35.82a2.1,2.1,0,0,1-.24,1.15c-.22.52-.14.71.43,1a1.43,1.43,0,0,0,1.45-.26,1.82,1.82,0,0,0,.45-.9,4.09,4.09,0,0,1,.51.26A5.88,5.88,0,0,1,76,243.54Z"/><path d="M86.36,242.48c.46-.07,1-.31,1-.47s-.16-.4-.59-.57a2.8,2.8,0,0,0-1.36-.07,5.34,5.34,0,0,0-3,1.74l-.08.07a.68.68,0,0,0,0-.19v-.07c.11-.58-.18-.91-.93-1h0c-1.07-.19-1,.5-1,.75-.37,1.53-.64,3.11-1,4.57s-.54,2.73-.81,4.12c-.13.75,0,1.06.73,1.1h0c.75.1,1.42-.23,1.48-.73a15.26,15.26,0,0,1,.37-2.28,12.14,12.14,0,0,1,.72-2.56c1-2.07,2.12-3.86,4.46-4.4Z"/><path d="M138.7,248.34h0c-.3-.31-.83-.17-1.23.44a7.8,7.8,0,0,1-1.19,1.41c-.37.43-1.15,1-1.6.8s-.35-.63-.38-1.08a13.58,13.58,0,0,1,.78-3.41c.13-.66,0-.89-.78-1.06a1,1,0,0,0-1.29.71,13.54,13.54,0,0,1-2,4.26c-.4.47-.61.75-1,.87s-.19.11-.48-.21-.35-1.25-.43-2a8.85,8.85,0,0,1,1.93-5.23c1.12-1.34,1.61-1.45,2.33-.65.27.25.19.58.22.87s.53.7,1.1.65a.72.72,0,0,0,.77-.8,3,3,0,0,0-2.57-2.35h0a2.73,2.73,0,0,0-2.2.38,7.36,7.36,0,0,0-2.53,2.85,9.94,9.94,0,0,0-1.25,3.85h0a7.86,7.86,0,0,1-2.81,2.31c-1.56.8-2.77.85-3.41.07a3.3,3.3,0,0,1-.67-2,4.73,4.73,0,0,1,.16-1.39c.08-.21.67-.07,1.26-.14,2.58-.28,4.62-2.54,4.16-4.59-.3-1.32-2.17-2-3.51-1.32a6.06,6.06,0,0,0-1.64,1.18,9.73,9.73,0,0,0-2.5,5.08,7.22,7.22,0,0,0-.07.75h0a11.13,11.13,0,0,1-2.76,1.86s0,0,0-.07c.08-.52.21-1.43.32-1.88s.4-2,.48-2.42-.08-.71-.72-.9a1,1,0,0,0-1.18.47c-.48.78-1.1,2.5-1.56,3.06-.59.9-1,1.27-1.66,1.34-.4.05-.56,0-.7-.3a3.74,3.74,0,0,1,.08-2.4c.43-1.63,1-3.39,2.63-4.29.91-.49,1.21-.44,1.74.15l.25.44a.66.66,0,0,0,.85.33c.49-.14.68-.3.68-.59-.06-.7-.54-1.22-1.51-1.6a3.61,3.61,0,0,0-2.79-.07,8.05,8.05,0,0,0-4.13,6.62,5.24,5.24,0,0,0,0,.89,5.37,5.37,0,0,1-2.13,1.93c-.45.19-.64.12-.77-.28a3.76,3.76,0,0,1,.08-2c.4-1.64.85-3.22,1.23-4.8a1.92,1.92,0,0,0-.86-1.95,2.53,2.53,0,0,0-2.36-.26,7.82,7.82,0,0,0-2.63,1.62,7.66,7.66,0,0,0-.8.87l.27-1.31c.16-.61,0-.87-.75-1h0a.94.94,0,0,0-1.21.78c-.32,1.5-.67,3-1,4.49l-.33,1.5-.08.1a7.41,7.41,0,0,1-1.18,1.41c-.37.43-1.15,1-1.61.8-.29-.09-.34-.63-.37-1.08a13.58,13.58,0,0,1,.78-3.41c.13-.66,0-.89-.78-1.06a1,1,0,0,0-1.29.71,13.54,13.54,0,0,1-2,4.26c-.4.47-.61.75-1,.87s-.19.11-.49-.21-.34-1.25-.43-2a8.93,8.93,0,0,1,1.94-5.23c1.12-1.34,1.61-1.45,2.33-.65.27.25.19.58.21.87s.54.7,1.1.65.78-.3.78-.8A3,3,0,0,0,92,241.51h0a2.74,2.74,0,0,0-2.2.38,7.41,7.41,0,0,0-2.52,2.85A8.19,8.19,0,0,0,86.12,250a3,3,0,0,0,2.31,2.5,3.06,3.06,0,0,0,3.22-1.06h0l.24-.24c.67,1.32,2.9,1.56,4.24.4l.12-.1a1.2,1.2,0,0,0,.85.57h0a.84.84,0,0,0,1.13-.7c.86-2.28,1.61-4.5,3.19-6.31A6.08,6.08,0,0,1,104,243c.37-.16.45-.12.32.47s-.24.9-.32,1.3a45.28,45.28,0,0,0-1.13,4.75,3,3,0,0,0,.24,1.58,3.08,3.08,0,0,0,3.43,1.27,6.07,6.07,0,0,0,2.29-1.49,4.12,4.12,0,0,0,2.41.31,6,6,0,0,0,1.85-.78c0,.5-.08,1-.43,1.23a26.41,26.41,0,0,0-3.59,2.28c-.86.82-1.72,1.6-1.72,2.8a1.94,1.94,0,0,0,0,.42c0,1.18,2.31,2.4,3.73,2.07a3.36,3.36,0,0,0,2.63-2.4,20.3,20.3,0,0,0,.91-3.9,1,1,0,0,1,.64-.92c1-.53,1.94-1,2.79-1.62.49,1.77,2.81,2.67,5.5,2.16a8.06,8.06,0,0,0,3.64-1.8,3,3,0,0,0,2.1,1.78,3.06,3.06,0,0,0,3.22-1.06h0l.24-.24c.67,1.32,2.9,1.56,4.24.4a8.66,8.66,0,0,0,1.91-2.23C139.07,249,139,248.76,138.7,248.34Zm-18.24-2a8.74,8.74,0,0,1,1.2-2.45,4.82,4.82,0,0,1,1.32-1.2c.45-.26.51-.28.69-.17a1,1,0,0,1,.14.71,4,4,0,0,1-.94,1.83,4.37,4.37,0,0,1-2.17,1.25c-.19.05-.27.07-.27.1S120.46,246.38,120.46,246.34ZM111.52,257a2.91,2.91,0,0,1-.43.59c-.48.51-.64.56-1,.42a1.31,1.31,0,0,1-.86-1.22,3.54,3.54,0,0,1,1.64-2.57,11.72,11.72,0,0,1,1.66-.89A12.81,12.81,0,0,1,111.52,257Z"/></g></g></g></svg>