<svg xmlns="http://www.w3.org/2000/svg" viewBox="0 0 362.51 125.55"><title>orangea-hotels</title><g id="Layer_2" data-name="Layer 2"><g id="Body_1" data-name="Body 1"><g id="Text"><path d="M50.79,69.54v55.38H38V102.21H12.82v22.71H0V69.54H12.82V91.38H38V69.54Z" style="fill:#fff"/><path d="M71.24,122.74A20.92,20.92,0,0,1,62.89,115a22.82,22.82,0,0,1,0-22.62,21,21,0,0,1,8.35-7.8,27.22,27.22,0,0,1,24.09,0,20.94,20.94,0,0,1,8.3,7.8,22.75,22.75,0,0,1,0,22.62,20.92,20.92,0,0,1-8.3,7.79,25.24,25.24,0,0,1-12,2.81A25.42,25.42,0,0,1,71.24,122.74Zm19.85-10.52a12,12,0,0,0,3-8.58,12,12,0,0,0-3-8.59,10.28,10.28,0,0,0-7.79-3.2,10.43,10.43,0,0,0-7.83,3.2,11.86,11.86,0,0,0-3.09,8.59,11.85,11.85,0,0,0,3.09,8.58,10.4,10.4,0,0,0,7.83,3.2A10.25,10.25,0,0,0,91.09,112.22Z" style="fill:#fff"/><path d="M142.32,122.86a12.77,12.77,0,0,1-4.47,2,22.57,22.57,0,0,1-5.58.67q-7.59,0-11.75-3.88t-4.15-11.39V92.8H109.8V83.31h6.57V72.94h12.34V83.31h10.6V92.8h-10.6v17.33a5.83,5.83,0,0,0,1.38,4.15,5.17,5.17,0,0,0,3.92,1.46,8,8,0,0,0,5-1.58Z" style="fill:#fff"/><path d="M189.39,107.12h-32.2a10,10,0,0,0,4.11,6.25,13.61,13.61,0,0,0,8.07,2.29,16.36,16.36,0,0,0,5.9-1,14.38,14.38,0,0,0,4.78-3.12l6.57,7.12q-6,6.89-17.56,6.88a27.69,27.69,0,0,1-12.74-2.81,20.56,20.56,0,0,1-8.54-7.79,21.4,21.4,0,0,1-3-11.31,21.75,21.75,0,0,1,3-11.28,20.85,20.85,0,0,1,8.14-7.83,25.24,25.24,0,0,1,22.91-.12,19.75,19.75,0,0,1,8,7.72,23.06,23.06,0,0,1,2.88,11.67C189.62,104,189.54,105.06,189.39,107.12ZM160.51,93.43A10.1,10.1,0,0,0,157,99.92h21a10.25,10.25,0,0,0-3.49-6.45,10.38,10.38,0,0,0-7-2.41A10.65,10.65,0,0,0,160.51,93.43Z" style="fill:#fff"/><path d="M197.85,66.22h12.34v58.7H197.85Z" style="fill:#fff"/><path d="M225.62,124.25a26.93,26.93,0,0,1-8.07-3.29l4.11-8.86a26,26,0,0,0,6.88,3,29.07,29.07,0,0,0,7.92,1.15c5.22,0,7.83-1.3,7.83-3.88a2.74,2.74,0,0,0-2.14-2.61,31.37,31.37,0,0,0-6.56-1.35,61.5,61.5,0,0,1-8.63-1.82,13.28,13.28,0,0,1-5.89-3.63q-2.49-2.61-2.49-7.44a11.61,11.61,0,0,1,2.33-7.16,15.13,15.13,0,0,1,6.8-4.87,29.29,29.29,0,0,1,10.57-1.74,41.37,41.37,0,0,1,9,1,25.13,25.13,0,0,1,7.4,2.73l-4.11,8.78a24.66,24.66,0,0,0-12.26-3.16,12.48,12.48,0,0,0-5.94,1.11,3.26,3.26,0,0,0-2,2.84,2.83,2.83,0,0,0,2.14,2.77,37.83,37.83,0,0,0,6.8,1.51,73,73,0,0,1,8.55,1.86,12.75,12.75,0,0,1,5.77,3.6,10.18,10.18,0,0,1,2.46,7.27,11.24,11.24,0,0,1-2.38,7,15.1,15.1,0,0,1-6.92,4.79,30.92,30.92,0,0,1-10.8,1.7A41.31,41.31,0,0,1,225.62,124.25Z" style="fill:#fff"/><path d="M28.63,53.56A27.66,27.66,0,0,1,17.79,43.31a28,28,0,0,1-3.91-14.67A28,28,0,0,1,17.79,14,27.63,27.63,0,0,1,28.63,3.72,32.34,32.34,0,0,1,44.18,0a32.09,32.09,0,0,1,15.5,3.72,27.71,27.71,0,0,1,14.8,24.92,27.72,27.72,0,0,1-4,14.67A28,28,0,0,1,59.68,53.56a32.09,32.09,0,0,1-15.5,3.72A32.34,32.34,0,0,1,28.63,53.56ZM53,44.1a16.25,16.25,0,0,0,6.21-6.29,18.46,18.46,0,0,0,2.25-9.17,18.53,18.53,0,0,0-2.25-9.18A16.25,16.25,0,0,0,53,13.17a17.61,17.61,0,0,0-8.86-2.25,17.58,17.58,0,0,0-8.86,2.25,16.12,16.12,0,0,0-6.21,6.29,18.43,18.43,0,0,0-2.26,9.18,18.36,18.36,0,0,0,2.26,9.17,16.12,16.12,0,0,0,6.21,6.29,17.49,17.49,0,0,0,8.86,2.26A17.51,17.51,0,0,0,53,44.1Z" style="fill:#fff"/><path d="M101,14.71a22.22,22.22,0,0,1,8.66-1.58V24.52c-1.37-.1-2.3-.15-2.77-.15-3.53,0-6.3,1-8.31,3s-3,5-3,8.9v20.1H83.26V13.77H95v5.61A13.83,13.83,0,0,1,101,14.71Z" style="fill:#fff"/><path d="M149.15,17.84q5.31,4.71,5.31,14.2V56.33H142.9V51q-3.48,5.92-13,5.93a20.08,20.08,0,0,1-8.5-1.66,12.68,12.68,0,0,1-5.5-4.59,11.92,11.92,0,0,1-1.9-6.65,11.09,11.09,0,0,1,4.47-9.33q4.47-3.4,13.8-3.4h9.81a7.85,7.85,0,0,0-2.45-6.21c-1.63-1.45-4.09-2.18-7.36-2.18A21.56,21.56,0,0,0,125.62,24,17.51,17.51,0,0,0,120,26.9l-4.43-8.63A26.86,26.86,0,0,1,124,14.48a37.24,37.24,0,0,1,10-1.35Q143.86,13.13,149.15,17.84ZM138.63,47.19a8,8,0,0,0,3.48-4.31V38.53h-8.46q-7.59,0-7.6,5a4.44,4.44,0,0,0,1.86,3.76A8.4,8.4,0,0,0,133,48.65,10.67,10.67,0,0,0,138.63,47.19Z" style="fill:#fff"/><path d="M204.25,17.88q4.88,4.74,4.87,14.08V56.33H196.78V33.86c0-3.38-.74-5.89-2.22-7.56a8.12,8.12,0,0,0-6.41-2.49,9.82,9.82,0,0,0-7.43,2.89q-2.78,2.89-2.77,8.58v21H165.61V13.77H177.4v5a16.25,16.25,0,0,1,6.09-4.15,21.12,21.12,0,0,1,8-1.47Q199.39,13.13,204.25,17.88Z" style="fill:#fff"/><path d="M264.65,13.77V49.21q0,11.7-6.09,17.4t-17.8,5.7a44.63,44.63,0,0,1-11.71-1.51,25.47,25.47,0,0,1-9.17-4.35l4.9-8.86a20.1,20.1,0,0,0,6.8,3.52,27.15,27.15,0,0,0,8.23,1.31q6.41,0,9.46-2.89c2-1.93,3-4.84,3-8.74V49q-4.83,5.3-13.45,5.3a22.66,22.66,0,0,1-10.72-2.57,19.6,19.6,0,0,1-7.71-7.24,20.23,20.23,0,0,1-2.85-10.76,20.23,20.23,0,0,1,2.85-10.76,19.68,19.68,0,0,1,7.71-7.24,22.66,22.66,0,0,1,10.72-2.57q9.25,0,14.08,6.09V13.77ZM249.34,41.26a9.81,9.81,0,0,0,3.13-7.56,9.77,9.77,0,0,0-3.13-7.55,12.64,12.64,0,0,0-16.09,0,9.73,9.73,0,0,0-3.17,7.55,9.77,9.77,0,0,0,3.17,7.56,12.68,12.68,0,0,0,16.09,0Z" style="fill:#fff"/><path d="M317.58,38.53h-32.2a10.05,10.05,0,0,0,4.11,6.25,13.61,13.61,0,0,0,8.07,2.29,16.36,16.36,0,0,0,5.9-1A14.38,14.38,0,0,0,308.24,43l6.57,7.12Q308.8,57,297.24,57a27.8,27.8,0,0,1-12.73-2.81A20.65,20.65,0,0,1,276,46.36a21.49,21.49,0,0,1-3-11.31,21.84,21.84,0,0,1,3-11.28,20.8,20.8,0,0,1,8.15-7.83A25.24,25.24,0,0,1,307,15.82a19.75,19.75,0,0,1,7.95,7.72,23,23,0,0,1,2.88,11.66C317.81,35.36,317.73,36.47,317.58,38.53ZM288.7,24.84a10.1,10.1,0,0,0-3.48,6.49h21a10.2,10.2,0,0,0-3.48-6.45,10.4,10.4,0,0,0-7-2.41A10.65,10.65,0,0,0,288.7,24.84Z" style="fill:#fff"/><path d="M357.21,17.84q5.3,4.71,5.3,14.2V56.33H351V51Q347.48,57,338,57a20.09,20.09,0,0,1-8.51-1.66,12.74,12.74,0,0,1-5.5-4.59,12,12,0,0,1-1.9-6.65,11.09,11.09,0,0,1,4.47-9.33q4.47-3.4,13.81-3.4h9.81a7.88,7.88,0,0,0-2.45-6.21q-2.46-2.18-7.36-2.18A21.57,21.57,0,0,0,333.67,24a17.57,17.57,0,0,0-5.57,2.89l-4.43-8.63A26.91,26.91,0,0,1,332,14.48a37.3,37.3,0,0,1,10-1.35Q351.91,13.13,357.21,17.84ZM346.69,47.19a8.06,8.06,0,0,0,3.48-4.31V38.53H341.7q-7.59,0-7.59,5A4.44,4.44,0,0,0,336,47.27a8.39,8.39,0,0,0,5.1,1.38A10.73,10.73,0,0,0,346.69,47.19Z" style="fill:#fff"/></g></g></g></svg>